<?xml version="1.0" encoding="UTF-8"?>
<svg width="17px" height="17px" viewBox="0 0 17 17" version="1.1" xmlns="http://www.w3.org/2000/svg" xmlns:xlink="http://www.w3.org/1999/xlink">
    <!-- Generator: Sketch 48.2 (47327) - http://www.bohemiancoding.com/sketch -->
    <title>ic_link</title>
    <desc>Created with Sketch.</desc>
    <defs></defs>
    <g id="004" stroke="none" stroke-width="1" fill="none" fill-rule="evenodd" transform="translate(-823.000000, -144.000000)">
        <g id="share-group" transform="translate(592.000000, 135.000000)" fill="#FFFFFF">
            <g id="Group-8" transform="translate(222.000000, 0.000000)">
                <g id="link">
                    <path d="M23.464303,21.0535858 C23.464303,20.7924248 23.3638564,20.5513531 23.1830526,20.3705493 L21.0937644,18.2812611 C20.9129606,18.1004573 20.6618443,18.0000107 20.4107279,18.0000107 C20.1194329,18.0000107 19.8884058,18.1105019 19.6875127,18.3214397 C20.0189863,18.6529133 20.4107279,18.9341636 20.4107279,19.446441 C20.4107279,19.9788077 19.9788077,20.4107279 19.446441,20.4107279 C18.9341636,20.4107279 18.6529133,20.0189863 18.3214397,19.6875127 C18.1105019,19.8884058 17.9899661,20.1194329 17.9899661,20.4207725 C17.9899661,20.6718889 18.0904126,20.9230053 18.2712164,21.1038091 L20.3404153,23.1830526 C20.5212191,23.3638564 20.7723355,23.4542583 21.0234518,23.4542583 C21.2745682,23.4542583 21.5256846,23.3638564 21.7064884,23.1930973 L23.1830526,21.7265777 C23.3638564,21.5457739 23.464303,21.3047022 23.464303,21.0535858 Z M16.4029106,13.9721041 C16.4029106,13.7209878 16.3024641,13.4698714 16.1216603,13.2890676 L14.0524614,11.2098241 C13.8716576,11.0290203 13.6205412,10.9285737 13.3694249,10.9285737 C13.1183085,10.9285737 12.8671921,11.0290203 12.6863883,11.1997794 L11.2098241,12.666299 C11.0290203,12.8471028 10.9285737,13.0881745 10.9285737,13.3392909 C10.9285737,13.6004519 11.0290203,13.8415236 11.2098241,14.0223274 L13.2991123,16.1116156 C13.4799161,16.2924194 13.7310324,16.3828213 13.9821488,16.3828213 C14.2734438,16.3828213 14.5044708,16.2823748 14.7053639,16.071437 C14.3738903,15.7399634 13.9821488,15.4587131 13.9821488,14.9464357 C13.9821488,14.414069 14.414069,13.9821488 14.9464357,13.9821488 C15.4587131,13.9821488 15.7399634,14.3738903 16.071437,14.7053639 C16.2823748,14.5044708 16.4029106,14.2734438 16.4029106,13.9721041 Z M25.3928767,21.0535858 C25.3928767,21.8169796 25.0814924,22.560284 24.539081,23.0926507 L23.0625168,24.5591703 C22.5201054,25.1015817 21.7868456,25.3928767 21.0234518,25.3928767 C20.2500134,25.3928767 19.5167536,25.091537 18.9743422,24.539081 L16.9051434,22.4598375 C16.362732,21.9174261 16.071437,21.1841663 16.071437,20.4207725 C16.071437,19.6272448 16.392866,18.8738957 16.9553666,18.3214397 L16.071437,17.4375101 C15.518981,18.0000107 14.7756765,18.3214397 13.9821488,18.3214397 C13.218755,18.3214397 12.4754506,18.0201 11.9330392,17.4776887 L9.84375101,15.3884005 C9.29129499,14.8359445 9,14.1127293 9,13.3392909 C9,12.5758971 9.3113843,11.8325927 9.85379566,11.300226 L11.3303599,9.83370635 C11.8727713,9.29129499 12.6060311,9 13.3694249,9 C14.1428633,9 14.8761231,9.30133964 15.4185344,9.85379566 L17.4877333,11.9330392 C18.0301447,12.4754506 18.3214397,13.2087104 18.3214397,13.9721041 C18.3214397,14.7656319 18.0000107,15.518981 17.4375101,16.071437 L18.3214397,16.9553666 C18.8738957,16.392866 19.6172002,16.071437 20.4107279,16.071437 C21.1741217,16.071437 21.9174261,16.3727766 22.4598375,16.915188 L24.5491257,19.0044762 C25.1015817,19.5569322 25.3928767,20.2801474 25.3928767,21.0535858 Z" id="ic_link" transform="translate(17.196438, 17.196438) scale(-1, 1) translate(-17.196438, -17.196438) "></path>
                </g>
            </g>
        </g>
    </g>
</svg>